<svg width="24" height="24" viewBox="0 0 24 24" fill="none" xmlns="http://www.w3.org/2000/svg">
<path d="M23.7662 9.64963H22.7996V9.59983H11.9998V14.3998H18.7815C17.7921 17.1939 15.1335 19.1997 11.9998 19.1997C8.02366 19.1997 4.79992 15.9759 4.79992 11.9998C4.79992 8.02366 8.02366 4.79992 11.9998 4.79992C13.8352 4.79992 15.5049 5.4923 16.7763 6.62329L20.1705 3.22914C18.0273 1.23178 15.1605 0 11.9998 0C5.37291 0 0 5.37291 0 11.9998C0 18.6267 5.37291 23.9996 11.9998 23.9996C18.6267 23.9996 23.9996 18.6267 23.9996 11.9998C23.9996 11.1952 23.9168 10.4098 23.7662 9.64963Z" fill="#FFC107"/>
<path d="M1.38281 6.41449L5.32534 9.30584C6.39213 6.66468 8.97568 4.79992 11.999 4.79992C13.8344 4.79992 15.5042 5.4923 16.7755 6.62328L20.1697 3.22914C18.0265 1.23178 15.1598 0 11.999 0C7.38991 0 3.39278 2.60215 1.38281 6.41449Z" fill="#FF3D00"/>
<path d="M12 24C15.0995 24 17.9159 22.8138 20.0452 20.8848L16.3313 17.7421C15.086 18.6891 13.5644 19.2013 12 19.2001C8.87881 19.2001 6.22865 17.2099 5.23027 14.4326L1.31714 17.4475C3.3031 21.3336 7.33623 24 12 24Z" fill="#4CAF50"/>
<path d="M23.7662 9.64964H22.7996V9.59984H11.9998V14.3998H18.7815C18.3082 15.7296 17.4557 16.8916 16.3293 17.7423L16.3311 17.7411L20.0451 20.8838C19.7823 21.1226 23.9996 17.9997 23.9996 11.9998C23.9996 11.1952 23.9168 10.4098 23.7662 9.64964Z" fill="#1976D2"/>
</svg>
